<svg id="4ba8563c-05ff-4805-94cc-8217d2b60a2a" data-name="Layer 1" xmlns="http://www.w3.org/2000/svg" viewBox="0 0 684.71 219.12"><title>cardpay-logo (Nexa)</title><path d="M173.35,71.83H78.15a7.27,7.27,0,0,0-7.26,7.26v59.82a7.27,7.27,0,0,0,7.26,7.26h95.2a7.27,7.27,0,0,0,7.26-7.26V79.09A7.27,7.27,0,0,0,173.35,71.83Zm-6.68,60.4H84.83V85.77h81.83Z" fill="#00b900"/><path d="M248.66,128.77a25.69,25.69,0,0,1-19.24,7.9c-14.48,0-26.53-8.71-26.53-26.43s12.05-26.43,26.53-26.43a23.71,23.71,0,0,1,18,7.39l-7.8,8.2a15.16,15.16,0,0,0-10-4c-8.3,0-14.38,6.08-14.38,14.79,0,9.52,6.48,14.58,14.18,14.58a15,15,0,0,0,10.94-4.15Z" fill="#00b900"/><path d="M293.13,85.23H305v49.93H293.33l-.61-7.29c-2.84,5.87-10.63,8.71-16.2,8.81-14.79.1-25.72-9-25.72-26.53,0-17.22,11.44-26.23,26-26.13,6.68,0,13.06,3.14,15.9,8.1Zm-30,24.91c0,9.52,6.58,15.19,14.79,15.19,19.44,0,19.44-30.28,0-30.28C269.73,95.05,263.15,100.62,263.15,110.14Z" fill="#00b900"/><path d="M327.76,85.23l.91,5.77c3.85-6.18,9-7.09,14.08-7.09s10.13,2,12.86,4.76L350,99.41a12.34,12.34,0,0,0-8.91-3.24c-6.48,0-12.46,3.44-12.46,12.66v26.33H316.32V85.23Z" fill="#00b900"/><path d="M410.4,64.37v70.79H398.86l-.81-6.89c-3.85,6-10,8-16.1,8-14.68,0-25.72-9.72-25.72-26.13,0-17.22,10.84-26.13,25.42-26.13,5.27,0,13.47,2.84,16.41,8V64.37Zm-41.83,45.77c0,8.71,6.28,14.68,14.18,14.68s14.48-5.67,14.48-14.68a14.25,14.25,0,0,0-14.48-14.58C374.85,95.56,368.58,101.13,368.58,110.14Z" fill="#00b900"/><path d="M421.74,158V85.23h11.55l.81,6.89c3.85-5.57,10.53-8,16.2-8,15.39,0,25.62,11.44,25.62,26.13s-9.22,26.13-25.22,26.13c-5.27,0-13.06-1.62-16.61-7.09V158Zm41.83-47.8c0-7.8-5.27-14.18-14.18-14.18s-14.18,6.38-14.18,14.18a14.18,14.18,0,0,0,28.36,0Z" fill="#00b900"/><path d="M523.63,85.23h11.85v49.93H523.83l-.61-7.29c-2.84,5.87-10.63,8.71-16.2,8.81-14.79.1-25.72-9-25.72-26.53,0-17.22,11.44-26.23,26-26.13,6.68,0,13.06,3.14,15.9,8.1Zm-30,24.91c0,9.52,6.58,15.19,14.79,15.19,19.44,0,19.44-30.28,0-30.28C500.23,95.05,493.65,100.62,493.65,110.14Z" fill="#00b900"/><path d="M596.44,85.23,565,158H551.48l10.23-23.7-20-49.12h14.38l7.6,21.57,4.76,14.08,5.17-13.77,9.11-21.88Z" fill="#00b900"/></svg>